# xmcd CD database file
#
# Track frame offsets:
#	150
#	27022
#	50286
#	69748
#	100468
#	112267
#	132496
#	150859
#	175364
#	190128
#	211476
#	226636
#
# Disc length: 3187 seconds
#
# Revision: 0
# Processed by: cddbd v1.5.1PL2 Copyright (c) Steve Scherf et al.
# Submitted via: CDex 1.51
#
DISCID=a10c710c
DTITLE=Various Artist - Easy Jazz CD 1
DYEAR=2005
DGENRE=Jazz
TTITLE0=Stacey Kent - s Wonderful
TTITLE1=Miles Davis Quintet - I could write a book
TTITLE2=Peter Cincotti - Comes Love
TTITLE3=Stan Getz - Easy Living
TTITLE4=Sarah Vaughan - Nice work if you can get it
TTITLE5=Oscar Peterson and Count Basie - The time is right
TTITLE6=Jamie Collum - Pointless nostalgic
TTITLE7=Toots Thielmans - Day dream
TTITLE8=Jacqui Dankworth - September in the rain
TTITLE9=EJQ - Summertime
TTITLE10=Chris Ingham - Have you met Miss Jones
TTITLE11=Wes Montgomery - Watch what happens
EXTD=YEAR: 2005
EXTT0=
EXTT1=
EXTT2=
EXTT3=
EXTT4=
EXTT5=
EXTT6=
EXTT7=
EXTT8=
EXTT9=
EXTT10=
EXTT11=
PLAYORDER=
